HIERARCHY
ROOT Hips
{
 OFFSET 0.000000 0.000000 0.000000
 CHANNELS 6 Xposition Yposition Zposition Yrotation Xrotation Zrotation
 JOINT Chest
 {
  OFFSET 0.000000 9.585900 0.002600
  CHANNELS 3 Yrotation Xrotation Zrotation
  JOINT Chest2
  {
   OFFSET 0.000000 9.601200 -0.005300
   CHANNELS 3 Yrotation Xrotation Zrotation
   JOINT Chest3
   {
    OFFSET 0.000000 9.561800 0.000000
    CHANNELS 3 Yrotation Xrotation Zrotation
    JOINT Chest4
    {
     OFFSET 0.000000 9.552100 0.000000
     CHANNELS 3 Yrotation Xrotation Zrotation
     JOINT Neck
     {
      OFFSET 0.000000 14.453000 0.000000
      CHANNELS 3 Yrotation Xrotation Zrotation
      JOINT Head
      {
       OFFSET 0.000000 8.936500 -0.011300
       CHANNELS 3 Yrotation Xrotation Zrotation
       End Site
       {
        OFFSET 0.000000 17.073600 -0.006000
       }
      }
     }
     JOINT RightCollar
     {
      OFFSET -2.921100 9.558500 0.000000
      CHANNELS 3 Yrotation Xrotation Zrotation
      JOINT RightShoulder
      {
       OFFSET -13.519700 0.000000 0.000000
       CHANNELS 3 Yrotation Xrotation Zrotation
       JOINT RightElbow
       {
        OFFSET 0.000000 -29.696600 0.000000
        CHANNELS 3 Yrotation Xrotation Zrotation
        JOINT RightWrist
        {
         OFFSET 0.000000 -24.004700 0.000000
         CHANNELS 3 Yrotation Xrotation Zrotation
         End Site
         {
          OFFSET 0.000000 -17.728500 0.000000
         }
        }
       }
      }
     }
     JOINT LeftCollar
     {
      OFFSET 2.921100 9.558500 0.000000
      CHANNELS 3 Yrotation Xrotation Zrotation
      JOINT LeftShoulder
      {
       OFFSET 13.519700 0.000000 0.000000
       CHANNELS 3 Yrotation Xrotation Zrotation
       JOINT LeftElbow
       {
        OFFSET 0.000000 -29.696600 0.000000
        CHANNELS 3 Yrotation Xrotation Zrotation
        JOINT LeftWrist
        {
         OFFSET 0.000000 -24.004700 0.000000
         CHANNELS 3 Yrotation Xrotation Zrotation
         End Site
         {
          OFFSET 0.000000 -17.728500 0.000000
         }
        }
       }
      }
     }
    }
   }
  }
 }
 JOINT RightHip
 {
  OFFSET -7.771700 -0.012900 -0.001300
  CHANNELS 3 Yrotation Xrotation Zrotation
  JOINT RightKnee
  {
   OFFSET 0.000000 -40.869800 0.001200
   CHANNELS 3 Yrotation Xrotation Zrotation
   JOINT RightAnkle
   {
    OFFSET 0.000000 -39.717900 0.002100
    CHANNELS 3 Yrotation Xrotation Zrotation
    JOINT RightToe
    {
     OFFSET 0.000000 -4.965400 11.033500
     CHANNELS 3 Yrotation Xrotation Zrotation
     End Site
     {
      OFFSET 0.000000 -1.423100 5.872300
     }
    }
   }
  }
 }
 JOINT LeftHip
 {
  OFFSET 7.771700 -0.012900 -0.001300
  CHANNELS 3 Yrotation Xrotation Zrotation
  JOINT LeftKnee
  {
   OFFSET 0.000000 -40.869800 0.001200
   CHANNELS 3 Yrotation Xrotation Zrotation
   JOINT LeftAnkle
   {
    OFFSET 0.000000 -39.717900 0.002100
    CHANNELS 3 Yrotation Xrotation Zrotation
    JOINT LeftToe
    {
     OFFSET 0.000000 -4.965400 11.033500
     CHANNELS 3 Yrotation Xrotation Zrotation
     End Site
     {
      OFFSET 0.000000 -1.423100 5.872300
     }
    }
   }
  }
 }
}
MOTION
Frames: 13
Frame Time: 0.008333
-16.404742 52.910221 11.067619 -177.731708 -16.661726 -2.417724 1.582152 15.865908 1.751357 0.130053 1.489056 0.132757 0.169380 2.546089 0.215798 1.178238 13.912735 1.331114 -0.976117 21.102378 -1.276556 -0.793026 -3.215700 -1.124638 -10.476385 -3.221849 -2.349015 -19.592123 -12.989868 -3.318389 -107.312580 -59.257892 120.526673 -17.980100 -30.271950 -18.173870 5.128692 -6.814148 5.275020 36.771422 -10.812431 8.137231 101.558291 -38.385024 -123.340022 20.625916 -37.125465 10.214036 6.091323 -62.105367 6.998729 177.430938 86.627731 178.453224 -11.037106 -20.345739 8.809830 -0.051150 -0.115674 0.165329 -0.104950 -60.888990 -0.512254 121.423447 77.454925 118.542855 -6.154810 -18.769908 -2.000157 0.366270 0.179497 0.152662
-16.415860 52.895011 11.064700 -177.724368 -16.659818 -2.393035 1.594363 15.847839 1.735374 0.131006 1.474271 0.133722 0.192220 2.513097 0.217762 1.168137 13.925393 1.331013 -0.986348 21.133690 -1.260517 -0.760388 -3.222487 -1.098769 -10.443435 -3.215582 -2.347989 -19.538486 -12.959486 -3.438315 -107.306922 -59.262739 120.703792 -17.995538 -30.130812 -18.006892 5.088515 -6.785662 5.283484 36.662900 -10.951208 8.257657 101.819964 -38.568526 -123.622760 20.512070 -37.015371 10.201227 6.138611 -62.120592 6.930446 177.688326 86.605373 178.706568 -10.960285 -20.337047 8.759399 -0.052123 -0.105970 0.160779 -0.123921 -60.895798 -0.522908 121.482269 77.444965 118.579754 -6.165744 -18.793642 -1.993499 0.379890 0.202514 0.149264
-16.421843 52.880836 11.058198 -177.746248 -16.686884 -2.389404 1.642749 15.838796 1.753184 0.113931 1.495235 0.128419 0.197162 2.501684 0.217767 1.210490 13.861595 1.329456 -1.011848 21.201881 -1.236780 -0.759813 -3.216720 -1.085029 -10.423626 -3.156686 -2.339630 -19.479351 -12.916225 -3.524841 -107.250912 -59.261296 120.826321 -18.013324 -29.966122 -17.832845 5.029784 -6.758513 5.294218 36.531105 -11.033942 8.408891 102.083139 -38.759822 -123.909966 20.392802 -36.904776 10.192482 6.169239 -62.109320 6.933366 177.997985 86.587185 179.008493 -10.911520 -20.319672 8.726203 -0.054535 -0.098727 0.154865 -0.160074 -60.872293 -0.487753 121.586110 77.432087 118.690243 -6.173443 -18.840502 -2.027077 0.412099 0.230263 0.162370
-16.432343 52.865117 11.056846 -177.749971 -16.690265 -2.360623 1.644834 15.831646 1.727757 0.114389 1.493287 0.128181 0.200511 2.484653 0.214554 1.228519 13.834187 1.324233 -0.999118 21.218783 -1.203149 -0.772827 -3.192099 -1.075232 -10.374960 -3.111911 -2.321421 -19.426202 -12.864759 -3.577425 -107.139955 -59.254747 120.900453 -18.023806 -29.788434 -17.676526 4.998614 -6.741740 5.296561 36.391002 -11.104124 8.550594 102.349055 -38.965197 -124.204901 20.258019 -36.780484 10.192509 6.244274 -62.124556 6.864620 178.199189 86.563842 179.208942 -10.930157 -20.300354 8.703551 -0.057122 -0.088666 0.152281 -0.150844 -60.873799 -0.524154 121.608936 77.415091 118.702150 -6.163177 -18.866608 -2.032725 0.407660 0.256735 0.160865
-16.442115 52.849396 11.057155 -177.755214 -16.693568 -2.333270 1.650459 15.794088 1.699168 0.116860 1.486800 0.126341 0.197928 2.495898 0.213780 1.230549 13.848633 1.326781 -0.987408 21.164529 -1.175464 -0.788011 -3.173999 -1.027246 -10.307819 -3.085790 -2.301165 -19.384049 -12.811094 -3.594037 -106.973499 -59.256291 120.930741 -18.016333 -29.610681 -17.561722 4.987503 -6.744385 5.283527 36.244731 -11.156336 8.681369 102.619545 -39.189060 -124.507592 20.104641 -36.634178 10.194913 6.318413 -62.137703 6.775821 177.963746 86.538317 178.951831 -10.818078 -20.291955 8.662199 -0.049770 -0.083211 0.149685 -0.131216 -60.877358 -0.570940 121.614414 77.393524 118.702802 -6.145975 -18.890194 -2.038274 0.393018 0.283837 0.157727
-16.445955 52.835266 11.055380 -177.780713 -16.721698 -2.334056 1.681476 15.796547 1.703212 0.117944 1.485382 0.125249 0.199759 2.493704 0.211998 1.232305 13.855669 1.328446 -0.998176 21.152163 -1.162162 -0.812801 -3.182160 -0.986260 -10.243385 -3.046001 -2.271970 -19.341086 -12.756133 -3.579685 -106.769757 -59.283792 120.922402 -17.992262 -29.444825 -17.489691 4.970595 -6.734934 5.268310 36.099491 -11.188616 8.799791 102.905488 -39.438266 -124.823289 19.930831 -36.464551 10.197479 6.340056 -62.123702 6.764709 177.699087 86.524607 178.653468 -10.658258 -20.285199 8.616268 -0.039386 -0.078066 0.147793 -0.145926 -60.859835 -0.561302 121.645269 77.372198 118.765062 -6.141556 -18.912985 -2.086840 0.414396 0.301505 0.172196
-16.453857 52.820844 11.057605 -177.782793 -16.737944 -2.314656 1.683472 15.787742 1.678578 0.118939 1.485511 0.124107 0.201550 2.493944 0.210177 1.242424 13.846333 1.320467 -1.023295 21.157911 -1.140034 -0.814110 -3.170557 -0.973424 -10.194657 -2.982497 -2.222664 -19.282498 -12.697361 -3.540412 -106.552578 -59.348376 120.876766 -17.960468 -29.296328 -17.441956 4.898582 -6.676697 5.221463 35.985717 -11.242236 8.927049 103.222613 -39.721248 -125.162778 19.736008 -36.276662 10.203094 6.385189 -62.123390 6.728528 177.990174 86.503173 178.901083 -10.622938 -20.265675 8.611929 -0.029663 -0.071362 0.151041 -0.132897 -60.854664 -0.610906 121.618815 77.349817 118.753443 -6.121136 -18.917667 -2.108598 0.410436 0.315417 0.169838
-16.462469 52.806710 11.063081 -177.781490 -16.747966 -2.290039 1.677579 15.772686 1.644008 0.119951 1.486928 0.123027 0.203334 2.496218 0.208419 1.254497 13.843814 1.314743 -1.059594 21.158406 -1.120737 -0.864445 -3.187890 -0.933511 -10.144062 -2.924944 -2.162977 -19.202035 -12.632248 -3.477691 -106.334911 -59.451033 120.798698 -17.921520 -29.166806 -17.406482 4.840206 -6.621651 5.207080 35.853880 -11.243487 9.004366 103.586416 -40.039636 -125.531729 19.523131 -36.070847 10.207937 6.411883 -62.135310 6.747113 179.161097 86.494775 -179.921096 -10.972092 -20.215492 8.654464 -0.039956 -0.049723 0.160994 -0.109123 -60.858834 -0.676609 121.579469 77.327049 118.729883 -6.105651 -18.910362 -2.124928 0.409615 0.320634 0.162495
-16.472985 52.793124 11.071584 -177.777934 -16.753554 -2.253465 1.662009 15.752873 1.593992 0.122000 1.501412 0.127662 0.203394 2.487784 0.201464 1.269289 13.849976 1.302952 -1.105039 21.151373 -1.092853 -0.878438 -3.190873 -0.917232 -10.088247 -2.873595 -2.087889 -19.103098 -12.559942 -3.391018 -106.122239 -59.579856 120.700164 -17.873992 -29.048930 -17.376327 4.801616 -6.590602 5.217148 35.689497 -11.186602 9.054838 104.000478 -40.393916 -125.925370 19.290160 -35.844478 10.210681 6.441654 -62.157551 6.800875 -178.953295 86.488787 -178.004343 -11.600399 -20.136722 8.739559 -0.063547 -0.022559 0.173137 -0.079111 -60.885733 -0.783419 121.534681 77.271296 118.696626 -6.041235 -18.864049 -2.145887 0.361369 0.289235 0.137863
-16.480336 52.783075 11.074482 -177.770525 -16.807228 -2.238404 1.647755 15.780064 1.567375 0.125767 1.515876 0.130606 0.201475 2.481481 0.196810 1.276418 13.857512 1.292366 -1.151901 21.142040 -1.066298 -0.872767 -3.186720 -0.916558 -10.017701 -2.822013 -2.012524 -18.993458 -12.482377 -3.275957 -105.907730 -59.715804 120.583092 -17.816160 -28.927287 -17.344956 4.721822 -6.521961 5.192690 35.563803 -11.146942 9.099106 104.460039 -40.782195 -126.335210 19.030918 -35.593627 10.216843 6.417293 -62.114617 6.834886 -178.509026 86.479563 -177.584620 -11.709454 -20.112427 8.733679 -0.063878 -0.016736 0.169905 -0.057324 -60.847649 -0.844012 121.489191 77.248810 118.670549 -6.021963 -18.837586 -2.161310 0.348094 0.279267 0.132602
-16.485932 52.772955 11.084056 -177.767522 -16.831836 -2.231680 1.636978 15.776314 1.551840 0.127978 1.521615 0.127596 0.200950 2.486170 0.198683 1.282150 13.869285 1.281591 -1.186529 21.132913 -1.041273 -1.027384 -3.242311 -0.827425 -9.942422 -2.771587 -1.933002 -18.879428 -12.402334 -3.131736 -105.669204 -59.839755 120.436504 -17.750583 -28.789451 -17.307372 4.632921 -6.449674 5.164564 35.439857 -11.084908 9.126192 104.952890 -41.196133 -126.755531 18.744988 -35.312752 10.230612 6.382762 -62.092593 6.819023 -178.530005 86.467978 -177.713366 -11.226176 -20.129313 8.658608 -0.044412 -0.027622 0.152152 -0.035983 -60.840419 -0.895260 121.423432 77.229239 118.629449 -6.001566 -18.812165 -2.174289 0.333366 0.276403 0.126162
-16.492252 52.763302 11.098583 -177.751961 -16.836444 -2.223950 1.608066 15.750261 1.532482 0.132624 1.528499 0.124056 0.201289 2.497116 0.202201 1.279307 13.882583 1.266262 -1.233391 21.105572 -1.004598 -1.113056 -3.283342 -0.774011 -9.863857 -2.723437 -1.841868 -18.767248 -12.323537 -2.963350 -105.379189 -59.938569 120.249599 -17.685121 -28.633616 -17.262235 4.601562 -6.420960 5.163254 35.259207 -10.951064 9.129043 105.444248 -41.628080 -127.175592 18.440942 -35.011679 10.246169 6.340215 -62.091231 6.796031 -179.074446 86.464340 -178.345039 -10.829329 -20.140509 8.578918 -0.026529 -0.032548 0.137300 -0.009291 -60.852565 -0.963448 121.344037 77.211515 118.577320 -5.944367 -18.752051 -2.183889 0.275699 0.247097 0.108391
-16.498091 52.755967 11.112006 -177.751483 -16.857907 -2.215708 1.591680 15.736914 1.518541 0.121764 1.505231 0.120861 0.223394 2.551066 0.206015 1.278968 13.887288 1.265341 -1.310136 21.061275 -0.973232 -1.150345 -3.312933 -0.748877 -9.799122 -2.675921 -1.753791 -18.662192 -12.248410 -2.774022 -105.015503 -60.006298 120.012097 -17.626973 -28.467713 -17.212434 4.566686 -6.390112 5.145255 35.079732 -10.800706 9.116337 105.900062 -42.076773 -127.580942 18.140202 -34.716421 10.245558 6.291544 -62.075952 6.834389 -178.676572 86.468406 -178.016941 -10.626122 -20.128490 8.541919 -0.019636 -0.030788 0.124442 0.030872 -60.846128 -1.027610 121.258961 77.193837 118.519491 -5.923991 -18.728881 -2.197177 0.259184 0.248928 0.105387
